<svg xmlns="http://www.w3.org/2000/svg" height="800" width="1200" viewBox="-43.34994 -15.4999 375.69948 92.9994"><defs><clipPath id="a" clipPathUnits="userSpaceOnUse"><path d="M1184.22 177.601h-123.604v-26.258h123.604z"/></clipPath></defs><path fill="none" d="M287.0096 43.202v-6.2223h1.99v6.2224zM119.3124 59.589h5.7174v2.4107h-5.7174zM0 34.7422v-12.536h1.653v12.536zM41.0256 0h11.2732v1.774H41.0256z"/><path d="M156.16 28.1726l-.8318 5.4872h2.7797l-.8015-5.313c-.2283-1.5286-.431-3.0572-.5452-4.5858h-.1142c-.0862 1.459-.2866 2.9527-.487 4.4116zm3.812-9.067l4.6158 23.1705h-5.245l-.6314-3.8563h-3.9005l-1.2349 3.8563h-5.2193l5.3079-23.1706h6.3074" fill="#fff"/><path d="M0 0l-.357-2.362H.836L.492-.075C.394.583.307 1.241.258 1.899H.209C.172 1.271.086.628 0 0z" fill="none" stroke="#fff" stroke-width=".92" transform="matrix(2.33003 0 0 -2.3231 156.16 28.1726)"/><path d="M0 0l1.981-9.974H-.271l-.271 1.66h-1.673l-.531-1.66h-2.239L-2.707 0z" fill="none" stroke="#fff" stroke-width=".92" transform="matrix(2.33003 0 0 -2.3231 159.972 19.1055)"/><path d="M169.6602 19.1055v16.6752c0 1.3544.1142 3.0224 1.433 3.0224 1.3468 0 1.4912-1.5634 1.4912-2.9178V19.1055h5.0469V34.078c0 1.8748-.028 3.8564-.776 5.5243-1.2022 2.4997-3.439 3.2292-5.6759 3.2292-5.3894 0-6.566-3.0572-6.566-9.102v-14.624h5.0468" fill="#fff"/><path d="M0 0v-7.178c0-.583.049-1.301.615-1.301.578 0 .64.673.64 1.256V0h2.166v-6.445c0-.807-.012-1.66-.333-2.378-.516-1.076-1.476-1.39-2.436-1.39-2.313 0-2.818 1.316-2.818 3.918V0z" fill="none" stroke="#fff" stroke-width=".92" transform="matrix(2.33003 0 0 -2.3231 169.6602 19.1055)"/><path d="M191.6255 19.1055v5.0365h-3.784v18.1341h-4.9886V24.142h-3.8446v-5.0365h12.6172" fill="#fff"/><path d="M0 0v-2.168h-1.624v-7.806h-2.141v7.806h-1.65V0z" fill="none" stroke="#fff" stroke-width=".92" transform="matrix(2.33003 0 0 -2.3231 191.6255 19.1055)"/><path d="M197.3294 31.857c0 1.6657.028 3.3685.2307 5.0017.1118 1.0082.5149 1.9444 1.4609 1.9444.946 0 1.3188-.9014 1.433-1.9444.1724-1.5983.2004-3.264.2004-4.8995v-1.215c0-1.805 0-3.6124-.1142-5.4174-.0862-1.2173-.3728-2.5717-1.5775-2.5717-1.5774 0-1.5774 2.4323-1.5774 3.7867-.056 1.3892-.056 2.7784-.056 4.2025zm1.6636-13.237c6.6802 0 6.8224 5.6637 6.8224 12.1243 0 6.3583-.0862 12.0894-6.7944 12.0894-6.5078 0-6.8526-5.7311-6.8526-12.0894 0-6.4606.1444-12.1243 6.8246-12.1243" fill="#fff"/><path d="M0 0c0-.717.012-1.45.099-2.153.048-.434.221-.837.627-.837s.566.388.615.837c.074.688.086 1.405.086 2.109v.523c0 .777 0 1.555-.049 2.332-.037.524-.16 1.107-.677 1.107-.677 0-.677-1.047-.677-1.63C0 1.69 0 1.092 0 .479z" fill="none" stroke="#fff" stroke-width=".92" transform="matrix(2.33003 0 0 -2.3231 197.3294 31.857)"/><path d="M0 0c2.867 0 2.929-2.438 2.929-5.219 0-2.736-.037-5.203-2.917-5.203-2.793 0-2.941 2.467-2.941 5.203C-2.929-2.438-2.867 0 0 0z" fill="none" stroke="#fff" stroke-width=".92" transform="matrix(2.33003 0 0 -2.3231 198.993 18.62)"/><path d="M218.8659 29.0763c1.8337 0 2.866-.3485 2.866-2.7784 0-2.5717-1.002-2.883-2.866-2.883zm1.377-9.9708c4.0986 0 6.622 1.7029 6.622 7.1552 0 4.8297-2.407 7.1575-6.2794 7.1575h-1.6916v8.858h-5.0166V19.1054h6.3656" fill="#fff"/><path d="M0 0c.787 0 1.23.15 1.23 1.196C1.23 2.303.8 2.437 0 2.437z" fill="none" stroke="#fff" stroke-width=".92" transform="matrix(2.33003 0 0 -2.3231 218.8659 29.0763)"/><path d="M0 0c1.76 0 2.842-.733 2.842-3.08 0-2.079-1.033-3.081-2.695-3.081h-.725v-3.813h-2.154V0z" fill="none" stroke="#fff" stroke-width=".92" transform="matrix(2.33003 0 0 -2.3231 220.243 19.1055)"/><path d="M232.3754 28.1726l-.8295 5.4872h2.7798l-.8039-5.313c-.2283-1.5286-.4287-3.0572-.5452-4.5858h-.1142c-.0862 1.459-.2866 2.9527-.487 4.4116zm3.8143-9.067l4.6158 23.1705h-5.2472l-.6315-3.8563h-3.8981l-.6315 3.8563h-5.217l4.6998-23.1706h6.3097" fill="#fff"/><path d="M0 0l-.356-2.362H.837L.492-.075C.394.583.308 1.241.258 1.899H.209C.172 1.271.086.628 0 0z" fill="none" stroke="#fff" stroke-width=".92" transform="matrix(2.33003 0 0 -2.3231 232.3754 28.1726)"/><path d="M0 0l1.981-9.974H-.271l-.271 1.66h-1.673l-.271-1.66h-2.239L-2.707 0z" fill="none" stroke="#fff" stroke-width=".92" transform="matrix(2.33003 0 0 -2.3231 236.1897 19.1055)"/><path d="M247.2643 28.8347c1.7476 0 3.0384-.244 3.0384-2.7111 0-2.639-1.2046-2.7436-3.0384-2.7436zm1.92-9.7269c3.728 0 6.107 1.1105 6.107 6.3235 0 2.8807-.8598 4.7577-3.2387 5.3826 2.866.453 3.0663 2.8482 3.1245 5.8357.028.9036.0583 1.8422.0583 2.7459 0 1.0059.0862 2.2209.7736 2.5693v.3136h-5.3335c-.431-.9733-.4008-2.258-.431-3.336l-.028-1.8398c-.0862-3.1966.2283-4.2048-2.9522-4.2048v9.3806h-5.0165V19.1078h6.9365" fill="#fff"/><path d="M0 0c.75 0 1.304.105 1.304 1.167C1.304 2.303.787 2.348 0 2.348z" fill="none" stroke="#fff" stroke-width=".92" transform="matrix(2.33003 0 0 -2.3231 247.2643 28.8347)"/><path d="M0 0c1.6 0 2.621-.479 2.621-2.722 0-1.241-.369-2.048-1.391-2.317 1.231-.195 1.317-1.226 1.342-2.512.012-.39.024-.793.024-1.182 0-.433.037-.957.333-1.106v-.135H.64c-.185.419-.172.972-.185 1.436l-.012.792C.406-6.37.541-5.937-.824-5.937v-4.037h-2.154V0z" fill="none" stroke="#fff" stroke-width=".92" transform="matrix(2.33003 0 0 -2.3231 249.1843 19.1078)"/><path d="M268.9616 19.1055v5.0365h-3.7863v18.1341h-4.9863V24.142h-3.8422v-5.0365h12.6148" fill="#fff"/><path d="M0 0v-2.168h-1.625v-7.806h-2.14v7.806h-1.649V0z" fill="none" stroke="#fff" stroke-width=".92" transform="matrix(2.33003 0 0 -2.3231 268.9616 19.1055)"/><path d="M274.3766 35.2952c0 1.3892.028 3.473 1.5774 3.473 1.0882 0 1.7196-.971 1.7196-2.2232 0-5.0016-7.9407-2.1883-7.9407-11.0811 0-4.7926 2.6935-6.809 6.3353-6.809 3.9564 0 6.1932 1.9815 6.1932 7.018h-4.7323c0-1.1801-.1141-2.9178-1.405-2.9178-.974 0-1.4889.8689-1.4889 1.9793 0 4.5161 8.0853 2.502 8.0853 10.8396 0 5.3826-2.5817 7.2248-6.7385 7.2248-4.3012 0-6.4216-1.7725-6.4216-7.1551 0-.1046.028-.244.028-.3485h4.7882" fill="#fff"/><path d="M0 0c0-.598.012-1.495.677-1.495.467 0 .738.418.738.957 0 2.153-3.408.942-3.408 4.77 0 2.063 1.156 2.931 2.719 2.931 1.698 0 2.658-.853 2.658-3.021H1.353c0 .508-.049 1.256-.603 1.256-.418 0-.639-.374-.639-.852 0-1.944 3.47-1.077 3.47-4.666 0-2.317-1.108-3.11-2.892-3.11-1.846 0-2.756.763-2.756 3.08 0 .045.012.105.012.15z" fill="none" stroke="#fff" stroke-width=".92" transform="matrix(2.33003 0 0 -2.3231 274.3766 35.2952)"/><path d="M283.2121 54.6072v-9.7803H147.7602l-2.4209 9.7803h137.8728" fill="#fff"/><path d="M156.174 28.154l-.8318 5.4895h2.782l-.8038-5.3153c-.2284-1.5286-.431-3.0572-.5452-4.5858h-.1142c-.0862 1.459-.2866 2.9527-.487 4.4116zm3.812-9.067l4.618 23.1705h-5.2472l-.6314-3.8563h-3.9005l-1.2349 3.8563h-5.2193l5.3078-23.1706h6.3074m9.6883.0001v16.675c0 1.3544.1142 3.02 1.433 3.02 1.349 0 1.4912-1.561 1.4912-2.9177V19.0869h5.0469v14.9724c0 1.8748-.028 3.8564-.776 5.5243-1.2022 2.4997-3.439 3.2292-5.6759 3.2292-5.3894 0-6.566-3.0572-6.566-9.102V19.087h5.0468m21.9652 0v5.0364h-3.784v18.1341h-4.9885V24.1234h-3.8423v-5.0365h12.6148m5.7016 12.7492c0 1.668.028 3.3685.2284 5.0017.1165 1.0082.5173 1.9444 1.4632 1.9444.946 0 1.3188-.9014 1.433-1.9444.1724-1.5983.2004-3.2663.2004-4.8971v-1.2173c0-1.8051 0-3.6125-.1142-5.4175-.0862-1.2173-.3728-2.5717-1.5774-2.5717-1.5751 0-1.5751 2.4323-1.5751 3.7867-.0583 1.3892-.0583 2.7784-.0583 4.2025zm1.6637-13.2347c6.6802 0 6.8223 5.6614 6.8223 12.122 0 6.3583-.0862 12.0894-6.7944 12.0894-6.5077 0-6.8526-5.7311-6.8526-12.0894 0-6.4606.1422-12.122 6.8247-12.122m19.8752 10.4563c1.836 0 2.866-.3485 2.866-2.7784 0-2.5717-1.002-2.883-2.866-2.883zm1.377-9.9708c4.0986 0 6.622 1.7029 6.622 7.1575 0 4.8274-2.4093 7.1552-6.2795 7.1552h-1.6916v8.858h-5.0165V19.0869h6.3656m12.1325 9.0671l-.8318 5.4895h2.782l-.8038-5.3153c-.2284-1.5286-.4287-3.0572-.5452-4.5858h-.1142c-.0862 1.459-.2866 2.9527-.487 4.4116zm3.812-9.067l4.618 23.1705h-5.2472l-.6314-3.8563h-3.8982l-.6314 3.8563h-5.2193l4.702-23.1706h6.3074m11.077 9.7269c1.7475 0 3.0384-.244 3.0384-2.7088 0-2.6413-1.2023-2.7459-3.0384-2.7459zm1.92-9.7268c3.728 0 6.107 1.1127 6.107 6.3234 0 2.883-.8598 4.7577-3.2388 5.3827 2.866.453 3.0664 2.848 3.1246 5.838.028.9013.0583 1.8398.0583 2.7435 0 1.0059.0862 2.2232.7735 2.5693v.3137h-5.3334c-.4287-.9734-.4008-2.258-.4287-3.336l-.028-1.8399c-.0885-3.1966.226-4.2025-2.9545-4.2025v9.3784h-5.0165V19.087h6.9365m19.7773 0v5.0364h-3.784v18.1341h-4.9886V24.1234h-3.8422v-5.0365h12.6148m5.415 16.1874c0 1.3892.028 3.473 1.5751 3.473 1.0905 0 1.7219-.971 1.7219-2.2232 0-5.0016-7.9408-2.1883-7.9408-11.0812 0-4.7925 2.6936-6.809 6.3354-6.809 3.9564 0 6.1932 1.9816 6.1932 7.0181h-4.7323c0-1.1801-.1141-2.9178-1.405-2.9178-.974 0-1.4889.8688-1.4889 1.9793 0 4.5161 8.083 2.502 8.083 10.8373 0 5.385-2.5794 7.2271-6.7362 7.2271-4.3013 0-6.424-1.7725-6.424-7.1551 0-.1046.0304-.244.0304-.3485h4.7882m8.8354 19.3119V44.806H147.7743l-2.4209 9.7802h137.8728" fill="#231f20"/><path d="M140.0082 20.6574h-15.2966v-7.945h-22.0887c-1.5589-1.164-3.4392-1.8028-5.4244-1.8028-2.4256 0-4.709.9432-6.4239 2.653-1.7172 1.7121-2.6609 3.9865-2.6609 6.4071 0 .4205.0373.8363.0932 1.2452-1.8267-.7713-3.8445-1.1685-6.0045-1.1685-2.4046 0-4.7253.5575-6.8223 1.6052-.7456-2.272-1.9573-3.8888-3.0384-4.9667-2.57-2.5624-6.2538-3.9725-10.3756-3.9725h-6.417c.0606-.4275.1026-.855.1026-1.2824 0-2.4183-.9437-4.6927-2.661-6.4025-1.7148-1.7098-3.9936-2.6506-6.4215-2.6506-2.4256 0-4.7043.9408-6.4216 2.6506-.8434.8433-1.5005 1.8237-1.9502 2.89-3.6512-2.6344-8.034-4.0143-12.8571-4.0143-5.8484 0-11.338 2.2603-15.4551 6.3653-4.8 4.7879-7.4445 11.6038-7.4445 19.1934 0 7.5966 2.5071 14.2778 7.0553 18.8125 3.9914 3.9818 9.446 6.1725 15.3573 6.1725 8.3462 0 15.031-3.7356 19.02-10.0474v8.2656h28.5942l1.4074-1.7517c2.7564 2.337 4.469 2.3626 8.472 2.3626 2.316 0 4.476-.4367 6.396-1.2452v.6343h28.3821v7.09h8.225c5.1796 0 10.308-1.0988 12.7476-9.06-.0023.0139 7.116-23.0057 7.116-23.0057l2.1762-7.032h-7.3816" fill="#fff"/><g clip-path="url(#a)" transform="matrix(2.33003 0 0 -2.3231 -2470.6455 413.15)" fill="#fff"><path d="M1120.436 168.952h-6.565v3.42h-9.48c-.669.501-1.476.776-2.328.776-1.041 0-2.021-.406-2.757-1.142-.737-.737-1.142-1.716-1.142-2.758 0-.181.016-.36.04-.536-.784.332-1.65.503-2.577.503-1.032 0-2.028-.24-2.928-.691-.32.978-.84 1.674-1.304 2.138-1.103 1.103-2.684 1.71-4.453 1.71h-2.754c.026.184.044.368.044.552 0 1.041-.405 2.02-1.142 2.756-.736.736-1.714 1.141-2.756 1.141-1.041 0-2.019-.405-2.756-1.141a3.9027 3.9027 0 01-.837-1.244c-1.567 1.134-3.448 1.728-5.518 1.728-2.51 0-4.866-.973-6.633-2.74-2.06-2.061-3.195-4.995-3.195-8.262 0-3.27 1.076-6.146 3.028-8.098 1.713-1.714 4.054-2.657 6.591-2.657 3.582 0 6.451 1.608 8.163 4.325v-3.558h12.272l.604.754c1.183-1.006 1.918-1.017 3.636-1.017.994 0 1.921.188 2.745.536v-.273h12.181v-3.052h3.53c2.223 0 4.424.473 5.471 3.9-.001-.006 3.054 9.903 3.054 9.903l.934 3.027z" stroke="#231f20" stroke-width="1.559"/></g><path d="M56.025 30.9069h5.4173c1.9455 0 2.987-1.222 2.987-3.422 0-2.1604-1.4585-3.1361-3.2643-3.1361h-5.14zm-6.4613-12.6284h12.6428c4.3758 0 8.684 2.3208 8.684 8.189 0 3.1361-1.2861 6.1097-3.8911 7.2922v.0813c2.64.7318 3.4042 4.1955 3.6139 6.9646.0675 1.222-.5872 5.5011.2796 6.5605h-6.3913c-.5546-.978.1025-3.8308.0326-4.6462-.1747-2.9318-.5918-5.9472-3.6115-5.9472h-4.8978v10.5934h-6.4612V18.2785m36.5629 16.3361c-.1095-2.3626-1.6054-4.3187-3.6837-4.3187-2.188 0-3.6466 1.7516-4.01 4.3187zm-7.6937 3.8702c.1095 2.8923 1.603 4.8065 4.229 4.8065 1.4959 0 2.9545-.7736 3.537-2.3207h5.7994c-1.13 4.8878-5.1796 7.0064-9.4087 7.0064-6.1629 0-10.357-4.156-10.357-11.2438 0-6.4768 4.6298-11.123 10.2103-11.123 6.7827 0 10.1752 5.7055 9.884 12.8746h-13.894m16.0003 8.8812h5.9043V26.2235h-5.9043zm9.5834 0h5.9043V18.2785h-5.9043zm8.9777 0h5.9043V18.2785h-5.9043zm20.1361 1.8748c-1.4236 4.6439-3.5416 5.2154-7.5353 5.2154h-2.7798v-5.622h2.0505c1.3537 0 2.3603-.8966 2.3603-2.3625 0-1.143-1.1464-4.4-1.4936-5.543l-4.653-14.7052h6.2514l3.4019 13.769h.0699l3.4042-13.769h6.044l-7.1205 23.0173M25.1916 13.5394c-6.0115 0-9.2386 5.076-9.2386 14.6518 0 6.9948 2.1017 16.717 10.0704 16.717 6.403 0 8.896-5.8217 8.896-15.1118 0-9.8035-3.665-16.257-9.7278-16.257zm17.5498 15.5113c0 12.5006-7.1369 20.0135-17.6477 20.0135-9.8257 0-16.9626-7.5686-16.9626-19.5535 0-11.353 7.2347-20.1274 17.452-20.1274 10.1682 0 17.1583 8.0287 17.1583 19.6674" fill="#009d57"/><path d="M26.1632 37.2907c.1282-.0999.2423-.2114.3518-.3275a.8582.8582 0 01-.3518.3275zm-.1212-11.792a6.3009 6.3009 0 00-.0745-.553c.0326.021.0676.0419.1002.0628a11.506 11.506 0 01-.0257.4902zm6.671 2.6971c0-1.2173-1.0276-2.2046-2.2928-2.2046-.522 0-1.002.1696-1.3887.453.1141-.2532.2004-.5134.226-.7899.1724-.309.2703-.662.2703-1.0384 0-1.2173-1.0252-2.2046-2.2905-2.2046-.6197 0-1.179.237-1.5914.6202-.417-.4158-1.0019-.676-1.652-.676-1.2652 0-2.2904.985-2.2904 2.2023 0 .6482.2913 1.229.755 1.6332.0419.0836.0862.1695.1328.2509-.014.0023-.028.0023-.042.0046-.3868-.2857-.8668-.4553-1.391-.4553-1.2675 0-2.2928.9873-2.2928 2.2046 0 .6365.2843 1.2103.734 1.6122-.3821.395-.6175.9223-.6175 1.503 0 .9618.6408 1.7772 1.5332 2.0793.0373.0325.0722.065.1142.0929.4543.3345 1.0648.374 1.5658.13.2749-.0115.5429-.116.7549-.3205l.014-.014a1.648 1.648 0 00.5568-.2857c-.0396.0279-.0768.0534-.1165.0813.1888-.0697.3519-.1765.501-.2997.3076-.0673.6245-.1092.918-.2253-.0442.0186-.0862.0325-.1304.0511.1724-.0093.3471-.007.5219-.021.0093.6506.0233 1.301-.0233 1.9538-.0093.1394-.0653.2741-.1002.4159.0046-.0256.0093-.0488.014-.0744-.1282.2788-.2424.5599-.3868.8294.0373-.0395.0839-.072.1305-.1046-.0513.0418-.0979.0883-.1445.1348-.0233.0395-.042.079-.0652.1184a.2533.2533 0 01.0442-.1022c-.177.1789-.3215.388-.396.6551v-.0697a1.1573 1.1573 0 00.5405 1.545c.5778.274 1.2699.0324 1.5471-.5414.0187-.0325.035-.0673.0536-.1022.5732-.6156.8575-1.4612 1.0183-2.2999.1467-.755.0978-1.4798.0792-2.2116.8854.611 1.92.7272 2.9475.6668.0396-.0023.0792 0 .1188-.0023h.0606c.417 0 .7829-.2254.9856-.5622.6454-.3903 1.0741-1.078 1.0741-1.8632 0-.525-.191-1.0059-.5102-1.3845.3192-.3787.5102-.8596.5102-1.3846" fill="#009d57"/><path d="M24.6207 35.251c-.0163.0163-.028.035-.0396.0535l.021-.0209c.007-.0116.0116-.0209.0186-.0325" fill="#009d57"/><path d="M285.3208 39.9925v-.8316h.7223c.289 0 .7107 0 .7107.3833 0 .3786-.2307.4553-.5616.4483zm1.2023.4414c.5242-.0348.8132-.2602.8132-.7991 0-.3067-.084-.5947-.3519-.769-.2237-.1394-.5545-.1463-.8062-.1463h-1.44v2.9735h.5826v-1.259h.5825l.6594 1.259h.6827zm-.6478 1.9932c-1.2419 0-2.2461-.992-2.2461-2.2394 0-1.2313 1.0042-2.2256 2.2461-2.2256 1.2373 0 2.2322.9943 2.2322 2.2256 0 1.2475-.995 2.2394-2.2322 2.2394zm0 .518c1.5169 0 2.7518-1.2312 2.7518-2.7574 0-1.51-1.235-2.7436-2.7518-2.7436-1.5308 0-2.7657 1.2336-2.7657 2.7436 0 1.5262 1.2349 2.7575 2.7657 2.7575" fill="#231f20" fill-rule="evenodd"/><path d="M93.8018 20.1021c0-2.0048 1.6287-3.6286 3.6395-3.6286 2.0085 0 3.6372 1.6238 3.6372 3.6286 0 2.0026-1.6287 3.6264-3.6372 3.6264-2.0108 0-3.6395-1.6238-3.6395-3.6264m-43.3573-8.5397c0-2.0002-1.6264-3.6217-3.6325-3.6217-2.0062 0-3.6349 1.6215-3.6349 3.6217 0 .1557.014.309.035.4623.0046.1951.0559.4902.2376.906.0327.0836.0723.1626.1119.2416.0023.0093.007.0163.0116.0233a4.337 4.337 0 00.0956.1788c.3378.6203.9133 1.4334 1.8943 2.488l-1.3631 1.02 1.363 2.2626s4.2734-2.7691 4.814-6.8926c.0442-.223.0675-.453.0675-.69" fill="#009d57"/><path d="M153.7003 49.272c.7249 0 1.133-.1016 1.133-.8095 0-.7492-.3962-.8399-1.133-.8399zm.5443-2.9048c1.6202 0 2.6178.496 2.6178 2.0845 0 1.407-.9515 2.0852-2.4824 2.0852h-.6687v2.5806h-1.9831v-6.7503h2.5164" fill="#fff"/><path d="M153.7058 49.2665c.7258 0 1.133-.1015 1.133-.8094 0-.7492-.3961-.8399-1.133-.8399zm.5444-2.9047c1.6202 0 2.6177.496 2.6177 2.0851 0 1.4064-.9524 2.0846-2.4823 2.0846h-.6688v2.5806h-1.983v-6.7503h2.5164m5.0695 2.8394c.6589 0 1.1456-.071 1.1456-.7897 0-.7688-.4542-.7993-1.1456-.7993zm.7239-2.8335c1.4056 0 2.3026.3235 2.3026 1.842 0 .8392-.3242 1.386-1.2212 1.568 1.0806.132 1.1562.8297 1.1781 1.7.0106.2633.022.5367.022.8 0 .293.0325.6469.2917.7484v.0913h-2.011c-.1625-.2835-.151-.6577-.1625-.9717l-.0105-.536c-.0325-.9312.086-1.2249-1.1131-1.2249v2.7326h-1.8915v-6.7497h2.6154" fill="#fff"/><path d="M159.325 49.1951c.6588 0 1.1455-.071 1.1455-.789 0-.7695-.4533-.8-1.1455-.8zm.7239-2.8334c1.4056 0 2.3026.3241 2.3026 1.842 0 .8398-.3242 1.386-1.2212 1.568 1.0806.132 1.1562.8297 1.1781 1.7006.0106.2626.022.536.022.7992 0 .293.0325.6477.2917.7485v.0914h-2.011c-.1616-.2836-.151-.6578-.1616-.9718l-.0106-.536c-.0334-.9312.0852-1.2242-1.114-1.2242v2.732h-1.8914v-6.7497h2.6154m4.8946 3.7233c0 .4864.0115.9823.0936 1.4586.0478.294.212.567.5998.567.3877 0 .5405-.2628.5873-.567.0706-.4661.0821-.9525.0821-1.4281v-.355c0-.5264 0-1.0535-.0468-1.58-.0353-.355-.1528-.75-.6465-.75-.6456 0-.6456.7094-.6456 1.1044-.0239.4051-.0239.8103-.0239 1.2256zm.6819-3.8597c2.738 0 2.7962 1.651 2.7962 3.5352 0 1.8542-.0354 3.5256-2.7847 3.5256-2.6673 0-2.8087-1.6714-2.8087-3.5256 0-1.8841.0583-3.5352 2.7972-3.5352m3.3154.2207v6.6808h1.6875V50.246h1.9687v-.95h-1.9687v-1.7775h2.4687V46.446h-.0312zm4.7812 0v6.6808h4.0938v-1.1646h-2.2812v-1.6855h2.0937v-1.1032h-2.0937v-1.655h2.2812V46.446h-3.6875zm6.8875 4.6925c0 .4048.0102 1.012.5705 1.012.395 0 .6237-.283.6237-.6478 0-1.4574-2.876-.6377-2.876-3.2288 0-1.3965.9755-1.984 2.2945-1.984 1.433 0 2.2431.5774 2.2431 2.0449h-1.714c0-.3439-.0413-.8502-.5088-.8502-.3528 0-.5393.2531-.5393.5767 0 1.316 2.9275.729 2.9275 3.1578 0 1.569-.9342 2.1058-2.4397 2.1058-1.5579 0-2.3267-.5165-2.3267-2.0849 0-.0304.011-.071.011-.1015h1.7342m5.4163.0005c0 .4047.01 1.012.5704 1.012.395 0 .6236-.283.6236-.6479 0-1.4574-2.8758-.6376-2.8758-3.2288 0-1.3965.9755-1.984 2.2944-1.984 1.4328 0 2.243.5774 2.243 2.045h-1.714c0-.344-.0413-.8503-.5088-.8503-.3527 0-.5392.2532-.5392.5767 0 1.316 2.9273.729 2.9273 3.1578 0 1.569-.9341 2.1058-2.4395 2.1058-1.5578 0-2.3265-.5164-2.3265-2.0848 0-.0305.011-.0711.011-.1016h1.734m3.7727-4.7174h1.7997v6.7666h-1.7997zm4.51 3.6635c0 .4864.0114.9823.0936 1.4586.0477.294.212.567.5997.567.3877 0 .5405-.2628.5873-.567.0707-.4661.0821-.9525.0821-1.4281v-.355c0-.5264 0-1.0535-.0467-1.58-.0354-.355-.1528-.75-.6466-.75-.6455 0-.6455.7094-.6455 1.1044-.024.4051-.024.8103-.024 1.2256zm.6818-3.8597c2.738 0 2.7962 1.651 2.7962 3.5352 0 1.8542-.0353 3.5256-2.7847 3.5256-2.6673 0-2.8086-1.6714-2.8086-3.5256 0-1.8841.0583-3.5352 2.7971-3.5352m11.4444 2.7914l-.3066 1.596h1.0254l-.2963-1.5454c-.0842-.4444-.158-.889-.201-1.3334h-.042c-.0318.4242-.1057.8586-.1795 1.2828zm1.405-2.6364l1.702 6.7371h-1.934l-.2327-1.1212h-1.4367l-.2327 1.1212h-1.9237l1.733-6.7371h2.3247m-8.1798-.0569l-.0625.0306h-1.3125v6.7727h1.375v-3.8613l2.0937 3.8613h1.6876V46.354h-1.625v3.984l-2.1563-3.984zm10.0938.0613v6.742h4.125v-1.379h-2.4063v-5.363zm9.1471 2.8873c.7249 0 1.133-.1016 1.133-.8095 0-.7492-.3961-.8399-1.133-.8399zm.5444-2.9048c1.6202 0 2.6177.496 2.6177 2.0845 0 1.407-.9515 2.0852-2.4823 2.0852h-.6688v2.5806h-1.983v-6.7503h2.5164" fill="#fff"/><path d="M218.9061 49.2665c.7259 0 1.133-.1015 1.133-.8094 0-.7492-.3961-.8399-1.133-.8399zm.5444-2.9047c1.6202 0 2.6178.496 2.6178 2.0851 0 1.4064-.9525 2.0846-2.4824 2.0846h-.6687v2.5806h-1.9831v-6.7503h2.5164m4.9309 2.6549l-.3066 1.596h1.0254l-.2963-1.5454c-.0842-.4444-.158-.889-.201-1.3334h-.042c-.0318.4242-.1057.8586-.1795 1.2828zm1.405-2.6364l1.702 6.7371h-1.934l-.2327-1.1212h-1.4367l-.2328 1.1212h-1.9236l1.733-6.7371h2.3247m4.3837 2.8209c.659 0 1.1456-.071 1.1456-.7897 0-.7688-.4542-.7993-1.1456-.7993zm.724-2.8335c1.4056 0 2.3026.3235 2.3026 1.842 0 .8392-.3242 1.386-1.2212 1.568 1.0806.132 1.1562.8297 1.1781 1.7.0106.2633.022.5367.022.8 0 .293.0325.6469.2916.7484v.0913h-2.0109c-.1625-.2835-.1511-.6577-.1625-.9717l-.0106-.536c-.0325-.9312.0861-1.2249-1.113-1.2249v2.7326h-1.8915v-6.7497h2.6153" fill="#fff"/><path d="M230.1753 49.1951c.659 0 1.1456-.071 1.1456-.789 0-.7695-.4533-.8-1.1456-.8zm.724-2.8334c1.4056 0 2.3025.3241 2.3025 1.842 0 .8398-.3241 1.386-1.2211 1.568 1.0806.132 1.1561.8297 1.178 1.7006.0106.2626.022.536.022.7992 0 .293.0326.6477.2917.7485v.0914h-2.011c-.1616-.2836-.151-.6578-.1616-.9718l-.0105-.536c-.0334-.9312.0852-1.2242-1.114-1.2242v2.732h-1.8914v-6.7497h2.6153m2.7607.023v1.379h1.6562v5.363h1.6875v-5.363h1.625v-1.379h-3.3125zm7.1426 4.7543c0 .4047.0101 1.012.5704 1.012.395 0 .6236-.283.6236-.6479 0-1.4574-2.8758-.6376-2.8758-3.2288 0-1.3965.9755-1.984 2.2944-1.984 1.4329 0 2.243.5774 2.243 2.045h-1.7139c0-.344-.0413-.8503-.5088-.8503-.3527 0-.5392.2532-.5392.5767 0 1.316 2.9273.729 2.9273 3.1578 0 1.569-.9342 2.1058-2.4396 2.1058-1.5577 0-2.3265-.5164-2.3265-2.0848 0-.0305.011-.0711.011-.1016h1.7341" fill="#fff"/><path d="M248.9088 49.272c.7249 0 1.133-.1016 1.133-.8095 0-.7492-.3962-.8399-1.133-.8399zm.5443-2.9048c1.6202 0 2.6178.496 2.6178 2.0845 0 1.407-.9515 2.0851-2.4824 2.0851h-.6687v2.5806h-1.9831v-6.7502h2.5164" fill="red"/><path d="M248.9143 49.2665c.7258 0 1.133-.1015 1.133-.8094 0-.7492-.3961-.84-1.133-.84zm.5444-2.9048c1.6202 0 2.6177.4961 2.6177 2.0852 0 1.4064-.9524 2.0845-2.4823 2.0845h-.6688v2.5806h-1.983v-6.7503h2.5164m3.12.0838v6.6808h4.0938v-1.1646h-2.2813v-1.6855h2.0938V49.173h-2.0938v-1.655h2.2813v-1.0726h-3.6875zm6.7153 3.6395c0 .4864.0115.9823.0936 1.4586.0478.294.212.567.5997.567.3878 0 .5406-.2628.5874-.567.0706-.4661.082-.9525.082-1.4281v-.355c0-.5264 0-1.0535-.0467-1.58-.0353-.355-.1528-.75-.6465-.75-.6456 0-.6456.7094-.6456 1.1044-.0239.4051-.0239.8103-.0239 1.2256zm.6819-3.8597c2.738 0 2.7962 1.651 2.7962 3.5352 0 1.8542-.0354 3.5256-2.7848 3.5256-2.6672 0-2.8086-1.6714-2.8086-3.5256 0-1.8841.0583-3.5352 2.7972-3.5352m5.2085 3.0467c.7249 0 1.133-.1016 1.133-.8095 0-.7492-.3961-.8399-1.133-.8399zm.5443-2.9048c1.6203 0 2.6178.496 2.6178 2.0845 0 1.407-.9515 2.0851-2.4824 2.0851h-.6687v2.5806h-1.9831v-6.7502h2.5164" fill="#fff"/><path d="M265.1899 49.2665c.7258 0 1.133-.1015 1.133-.8094 0-.7492-.3961-.84-1.133-.84zm.5444-2.9048c1.6202 0 2.6177.4961 2.6177 2.0852 0 1.4064-.9524 2.0845-2.4823 2.0845h-.6687v2.5806h-1.9832v-6.7503h2.5165m3.0945.0225v6.742h4.125v-1.379h-2.4062v-5.363zm4.75.0613v6.6808h4.0938v-1.1646h-2.2813v-1.6855h2.0938V49.173h-2.0938v-1.655h2.2813v-1.0726h-3.6875z" fill="#fff"/><path d="M145.2993 21.8148l-9.6875 30.5 3.4063 1.125 7.7187-24.25 1.8125-6.3125z" fill="#231f20"/></svg>